<svg width="125.43" height="131.483" xmlns="http://www.w3.org/2000/svg"><path style="display:inline;fill:#fff;fill-opacity:1;stroke:#095259;stroke-width:1;stroke-linecap:butt;stroke-linejoin:miter;stroke-miterlimit:4;stroke-dasharray:none;stroke-opacity:1" d="M85.748 61.041c10.75-7.249 13.352-15.76 5.566-24.907 10.007-49.402-68.096-49.481-57.852.343-7.731 10.47-3.783 18.206 5.701 24.647l4.416 8.7C10.492 79.99-3.837 101.113.72 129.578l123.412-.195c1.54-26.904-5.418-45.632-43.437-59.628z" transform="translate(.604 1.404)"/><path style="display:inline;fill:#095259;fill-opacity:1;stroke:none;stroke-width:0;stroke-linecap:butt;stroke-linejoin:miter;stroke-miterlimit:4;stroke-dasharray:none;stroke-opacity:1" d="M4.683 125.168h114.29c3.448-31.735-18.11-42.198-42.273-51.102-6.84 12.85-22.261 12.72-30.515-.022-28.872 7.899-43.642 23.875-41.502 51.124Zm32.23-88.62c-8.917-44.634 59.07-44.563 50.36-.306 6.777 8.194 4.511 15.819-4.846 22.313-9.901 27.443-31.94 27.19-40.55.074-8.256-5.77-11.693-12.701-4.963-22.08Z" transform="translate(.604 1.404)"/></svg>